# Blender v2.74 (sub 0) OBJ File: 'flick.blend'
# www.blender.org
mtllib flick.mtl
o Cube
v 0.493283 3.358162 -0.557581
v 0.493283 3.358162 0.557582
v -0.621880 3.358162 0.557581
v -0.621879 3.358162 -0.557582
v 0.493284 4.473325 -0.557581
v 0.493283 4.473325 0.557582
v -0.621880 4.473325 0.557581
v -0.621880 4.473325 -0.557581
v 0.217477 3.132053 -0.558374
v 0.217477 3.132053 0.281775
v -0.346073 3.132053 0.281775
v -0.346073 3.132053 -0.558374
v 0.217472 3.132053 -0.281770
v 0.217472 0.968324 -0.281770
v -0.346073 0.968324 0.281775
v -0.346073 3.132053 -0.281770
v 0.217477 0.968324 0.281775
v -0.346073 0.968324 -0.281770
v 0.441790 0.969012 -0.506089
v -0.570393 0.969012 0.506094
v 0.441802 0.969012 0.506094
v -0.570393 0.969012 -0.506089
v 0.441792 0.693645 -0.506090
v -0.570398 0.693645 0.506090
v 0.441802 0.693645 0.506090
v -0.570398 0.693645 -0.506090
v -0.355398 0.693645 0.291090
v -0.355398 0.693645 -0.291090
v 0.226800 0.693645 0.291090
v 0.226794 0.693645 -0.291090
v -0.064300 0.136640 0.000000
v 0.287873 4.473325 -0.352171
v 0.287873 4.473325 0.352172
v -0.416470 4.473325 -0.352171
v -0.416470 4.473325 0.352171
v 0.484858 4.636450 -0.549156
v 0.484858 4.636450 0.549157
v -0.613454 4.636450 -0.549156
v -0.613455 4.636450 0.549156
v 0.737710 4.635934 -1.046746
v 0.737709 4.635934 1.046747
v -0.856312 4.635934 -1.046747
v -0.856313 4.635934 1.046746
v 0.737458 6.297594 -0.295133
v 0.737457 6.561110 1.046496
v -0.856061 6.297594 -0.295134
v -0.856061 6.561110 1.046495
v 0.737458 6.561110 0.771842
v -0.856187 5.514251 -1.046742
v 0.737458 6.296990 0.771731
v -0.856061 6.561110 0.771841
v -0.856061 6.296990 0.771730
v 0.737584 5.514251 -1.046742
v 0.737709 4.635934 0.785322
v 0.978525 6.561142 1.046481
v 0.978526 6.297022 0.771716
v 0.978525 6.561142 0.771827
v 0.978776 4.635966 1.046732
v 0.978777 4.635966 0.785308
v -0.856313 4.635934 0.769506
v -1.124018 4.635970 1.046729
v -1.123767 6.561146 1.046478
v -1.123767 6.561146 0.771824
v -1.123767 6.297026 0.771713
v -1.124018 4.635970 0.769489
v 0.737495 6.271055 1.046534
v -0.856099 6.271055 1.046533
v -0.856274 4.935230 1.046707
v 0.737669 4.935230 1.046708
v 0.737563 4.958342 0.782426
v 0.737394 6.247944 0.771562
v -0.856167 4.958342 0.771730
v -0.855998 6.247944 0.771561
vt 0.054688 1.000000
vt 0.007812 1.000000
vt 0.007812 0.992188
vt 0.054688 0.992188
vt 0.007812 0.937500
vt 0.007812 0.945312
vt -0.000000 1.000000
vt 0.000000 0.937500
vt 0.054688 0.945312
vt 0.054688 0.937500
vt 0.062500 0.937500
vt 0.062500 1.000000
vt 0.179688 0.945312
vt 0.210938 0.945312
vt 0.210938 0.937500
vt 0.203125 0.937500
vt 0.187500 0.937500
vt 0.085938 0.828125
vt 0.070312 0.843750
vt 0.070312 0.812500
vt 0.210938 0.984375
vt 0.179688 0.984375
vt 0.171875 0.945312
vt 0.171875 0.984375
vt 0.140625 0.984375
vt 0.140625 0.945312
vt 0.218750 0.984375
vt 0.218750 0.945312
vt 0.250000 0.945312
vt 0.250000 0.984375
vt 0.007812 0.859375
vt 0.023438 0.859375
vt 0.031250 0.867188
vt 0.000000 0.867188
vt 0.140625 0.937500
vt 0.171875 0.937500
vt 0.226562 0.937500
vt 0.242188 0.937500
vt 0.164062 0.929688
vt 0.148438 0.929688
vt 0.148438 0.867188
vt 0.164062 0.867188
vt 0.187500 0.929688
vt 0.171875 0.929688
vt 0.171875 0.867188
vt 0.187500 0.867188
vt 0.226562 0.929688
vt 0.242188 0.929688
vt -0.000000 0.820312
vt 0.031250 0.820312
vt 0.031250 0.828125
vt 0.000000 0.828125
vt 0.023438 0.843750
vt 0.031250 0.835938
vt 0.007812 0.843750
vt -0.000000 0.835938
vt 0.015625 0.851562
vt 0.062500 0.859375
vt 0.062500 0.851562
vt 0.062500 0.789062
vt 0.101562 0.843750
vt 0.101562 0.812500
vt -0.000000 0.929688
vt 0.000000 0.875000
vt 0.062500 0.875000
vt 0.062500 0.898438
vt 0.031250 0.929688
vt 0.109375 0.859375
vt 0.109375 0.789062
vt 0.109375 0.851562
vt 0.117188 0.867188
vt 0.117188 0.890625
vt 0.070312 0.890625
vt 0.070312 0.867188
vt 0.117188 0.914062
vt 0.117188 0.945312
vt 0.070312 0.945312
vt 0.070312 0.914062
vt 0.125000 0.929688
vt 0.132812 0.929688
vt 0.132812 0.984375
vt 0.132812 0.992188
vt 0.125000 0.992188
vt 0.117188 0.851562
vt 0.117188 0.859375
vt 0.054688 0.859375
vt 0.054688 0.851562
vt 0.109375 0.992188
vt 0.109375 0.960938
vt 0.117188 0.960938
vt 0.117188 0.992188
vt 0.078125 0.960938
vt 0.078125 0.992188
vt 0.070312 0.992188
vt 0.070312 0.960938
vt 0.109375 1.000000
vt 0.078125 1.000000
vt 0.078125 0.953125
vt 0.109375 0.953125
vt 0.000000 0.000000
vn -0.000000 0.000100 1.000000
vn 0.000100 0.000100 1.000000
vn -0.000100 0.000100 1.000000
vn -0.003400 0.004300 1.000000
vn -0.634000 -0.773300 -0.000000
vn -0.637800 -0.770200 -0.000000
vn 1.000000 0.000000 0.000000
vn -0.000000 -0.000000 1.000000
vn -1.000000 -0.000000 -0.000000
vn 0.000000 0.000000 -1.000000
vn 0.000000 1.000000 0.003100
vn -0.000000 -0.773300 0.634000
vn 0.000000 0.003500 -1.000000
vn 0.634000 -0.773300 0.000000
vn 0.000000 -1.000000 0.000000
vn -0.003100 1.000000 0.000000
vn 0.000000 1.000000 -0.003100
vn 0.003100 1.000000 -0.000000
vn 0.000000 -0.463200 -0.886300
vn 0.886300 -0.463200 -0.000000
vn 0.000000 -0.463200 0.886300
vn -0.886300 -0.463200 0.000000
vn 0.002100 -1.000000 -0.000000
vn -0.000000 -0.770200 0.637800
vn 0.000000 -0.770200 -0.637800
vn 0.637800 -0.770200 0.000000
vn -1.000000 0.000200 0.000000
vn 0.000000 -1.000000 -0.001000
vn -0.000000 -1.000000 0.001000
vn -0.002000 -1.000000 -0.000000
vn -0.000000 1.000000 0.000600
vn 0.000000 0.692300 -0.721600
vn 1.000000 0.000100 -0.000100
vn 1.000000 0.000200 0.000000
vn 0.000100 -1.000000 0.000000
vn -1.000000 0.000100 -0.000100
vn -0.000100 -1.000000 0.000000
vn -1.000000 -0.000100 0.000400
vn 1.000000 -0.000100 0.000400
vn -0.000000 -0.996500 0.083800
vn -0.000300 0.996300 0.085400
vn 0.000000 1.000000 -0.000000
vn 0.000000 0.000400 -1.000000
vn -0.000100 -0.008200 -1.000000
vn -0.000100 0.000400 -1.000000
vn -0.000100 1.000000 0.000000
vn 0.000100 0.001300 -1.000000
vn 0.000100 0.000400 -1.000000
vn 0.000100 1.000000 0.000000
usemtl textured
s off
f 43/1/1 41/2/1 69/3/1 68/4/1
f 45/5/2 66/6/2 69/3/2 41/2/2 58/7/2 55/8/2
f 43/1/3 68/4/3 67/9/3 47/10/3 62/11/3 61/12/3
f 67/9/1 66/6/1 45/5/1 47/10/1
f 72/6/4 70/9/4 71/4/4 73/3/4
usemtl textured_flick_texture.png.001
f 3/13/5 4/14/5 12/15/5 16/16/5 11/17/5
f 34/18/6 35/18/6 39/19/6 38/20/6
f 1/14/7 5/21/7 6/22/7 2/13/7
f 2/23/8 6/24/8 7/25/8 3/26/8
f 3/13/9 7/22/9 8/21/9 4/14/9
f 5/27/10 1/28/10 4/29/10 8/30/10
f 18/31/11 14/32/11 19/33/11 22/34/11
f 2/23/12 3/26/12 11/35/12 10/36/12
f 4/29/13 1/28/13 9/37/13 12/38/13
f 1/14/14 2/13/14 10/17/14 13/16/14 9/15/14
f 16/39/10 13/40/10 14/41/10 18/42/10
f 10/39/8 11/40/8 15/41/8 17/42/8
f 11/43/9 16/44/9 18/45/9 15/46/9
f 9/37/15 13/47/15 16/48/15 12/38/15
f 13/43/7 10/44/7 17/45/7 14/46/7
f 22/49/10 19/50/10 23/51/10 26/52/10
f 14/32/16 17/53/16 21/54/16 19/33/16
f 17/53/17 15/55/17 20/56/17 21/54/17
f 15/55/18 18/31/18 22/34/18 20/56/18
f 19/51/7 21/52/7 25/49/7 23/50/7
f 21/51/8 20/52/8 24/49/8 25/50/8
f 20/49/9 22/50/9 26/51/9 24/52/9
f 28/55/15 27/31/15 24/34/15 26/56/15
f 27/31/15 29/32/15 25/33/15 24/34/15
f 29/32/15 30/53/15 23/54/15 25/33/15
f 30/53/15 28/55/15 26/56/15 23/54/15
f 28/55/19 30/53/19 31/57/19
f 30/53/20 29/32/20 31/57/20
f 29/32/21 27/31/21 31/57/21
f 27/31/22 28/55/22 31/57/22
f 38/20/23 39/19/23 43/58/23 60/59/23 42/60/23
f 35/18/24 33/18/24 37/61/24 39/19/24
f 32/18/25 34/18/25 38/20/25 36/62/25
f 33/18/26 32/18/26 36/62/26 37/61/26
f 42/63/27 60/64/27 52/65/27 46/66/27 49/67/27
f 39/19/28 37/61/28 41/68/28 43/58/28
f 36/62/29 38/20/29 42/60/29 40/69/29
f 37/61/30 36/62/30 40/69/30 54/70/30 41/68/30
f 42/71/10 49/72/10 53/73/10 40/74/10
f 46/75/31 52/76/31 50/77/31 44/78/31
f 53/73/32 49/72/32 46/75/32 44/78/32
f 58/79/33 59/80/33 56/81/33 57/82/33 55/83/33
f 54/64/34 40/65/34 53/66/34 44/67/34 50/63/34
f 41/68/35 54/70/35 59/84/35 58/85/35
f 65/80/36 61/79/36 62/83/36 63/82/36 64/81/36
f 60/59/37 43/58/37 61/86/37 65/87/37
f 71/88/38 70/89/38 69/90/38 66/91/38
f 72/92/39 73/93/39 67/94/39 68/95/39
f 73/93/40 71/88/40 66/96/40 67/97/40
f 70/89/41 72/92/41 68/98/41 69/99/41
usemtl textured_NONE
f 32/100/42 33/100/42 6/100/42 5/100/42
f 34/100/42 32/100/42 5/100/42 8/100/42
f 33/100/42 35/100/42 7/100/42 6/100/42
f 35/100/42 34/100/42 8/100/42 7/100/42
f 52/100/43 51/100/43 48/100/43 50/100/43
f 48/100/42 51/100/42 47/100/42 45/100/42
f 54/100/44 50/100/44 56/100/44 59/100/44
f 50/100/45 48/100/45 57/100/45 56/100/45
f 48/100/46 45/100/46 55/100/46 57/100/46
f 52/100/47 60/100/47 65/100/47 64/100/47
f 51/100/48 52/100/48 64/100/48 63/100/48
f 47/100/49 51/100/49 63/100/49 62/100/49
